<?xml version="1.0" encoding="UTF-8" standalone="no"?>
<!-- Created with Inkscape (http://www.inkscape.org/) -->

<svg
   xmlns:dc="http://purl.org/dc/elements/1.1/"
   xmlns:cc="http://creativecommons.org/ns#"
   xmlns:rdf="http://www.w3.org/1999/02/22-rdf-syntax-ns#"
   xmlns:svg="http://www.w3.org/2000/svg"
   xmlns="http://www.w3.org/2000/svg"
   xmlns:sodipodi="http://sodipodi.sourceforge.net/DTD/sodipodi-0.dtd"
   xmlns:inkscape="http://www.inkscape.org/namespaces/inkscape"
   sodipodi:docname="drawing.svg"
   inkscape:version="0.92.3 (2405546, 2018-03-11)"
   width="210mm"
   height="297mm"
   viewBox="0 0 210 297"
   version="1.1"
   id="svg8">
  <sodipodi:namedview
     id="base"
     pagecolor="#ffffff"
     bordercolor="#666666"
     borderopacity="1.0"
     inkscape:pageopacity="0.0"
     inkscape:pageshadow="2"
     inkscape:zoom="0.98994951"
     inkscape:cx="720.51451"
     inkscape:cy="543.51374"
     inkscape:document-units="mm"
     inkscape:current-layer="layer1"
     showgrid="false"
     inkscape:window-width="2493"
     inkscape:window-height="1385"
     inkscape:window-x="67"
     inkscape:window-y="27"
     inkscape:window-maximized="1" />
  <defs
     id="defs2">
    <style
       type="text/css"
       id="style14599">
    .outline { stroke:none; stroke-width:0 }
  </style>
    <g
       id="heart">
      <path
         d="M0 200 v-200 h200      a100,100 90 0,1 0,200     a100,100 90 0,1 -200,0     z"
         id="path14601" />
    </g>
  </defs>
  <metadata
     id="metadata5">
    <rdf:RDF>
      <cc:Work
         rdf:about="">
        <dc:format>image/svg+xml</dc:format>
        <dc:type
           rdf:resource="http://purl.org/dc/dcmitype/StillImage" />
        <dc:title />
      </cc:Work>
    </rdf:RDF>
  </metadata>
  <g
     inkscape:label="Layer 1"
     inkscape:groupmode="layer"
     id="layer1">
    <path
       d="m 169.31961,234.24801 c -5.57474,0 -9.5234,2.42348 -11.86042,4.46026 0.97996,-9.98936 7.05668,-14.06773 7.05668,-14.06773 l -4.80373,-2.40186 c 0,0 -6.19681,6.21362 -7.09031,16.70498 -2.30099,-2.08002 -6.33372,-4.69565 -12.12462,-4.69565 -9.60747,0 -16.81307,7.2056 -14.4112,21.6168 3.15846,18.95553 12.00933,26.42053 19.21493,26.42053 4.80374,0 9.60747,-4.80374 9.60747,-4.80374 0,0 4.80373,4.80374 9.60746,4.80374 7.2056,0 16.05648,-7.465 19.21494,-26.42053 2.40186,-14.4112 -4.80374,-21.6168 -14.4112,-21.6168 z"
       id="path9"
       inkscape:connector-curvature="0"
       style="fill:none;stroke:#000000;stroke-width:0.5;stroke-miterlimit:4;stroke-dasharray:none;stroke-opacity:1" />
    <path
       d="m 69.045352,126.22525 c -0.898805,-0.64173 -1.837548,-1.0689 -2.800777,-1.28345 -0.569571,-0.10888 -1.163615,-0.15012 -1.776341,-0.11662 -0.579228,0.0323 -1.131397,0.10824 -1.655214,0.22679 -0.39302,0.10889 -0.787334,0.25063 -1.182291,0.42459 -1.17134,0.51674 -2.18354,1.16748 -3.014686,1.95418 -0.78734,0.83114 -1.438087,1.84399 -1.954815,3.01469 -0.173958,0.39431 -0.315704,0.78862 -0.424595,1.18165 -0.118548,0.52445 -0.19522,1.07598 -0.226795,1.65521 -0.0335,0.61272 0.0077,1.20677 0.116624,1.77633 0.214553,0.96324 0.641722,1.90198 1.283449,2.80078 0.250631,0.3505 0.520594,0.67007 0.80924,0.95873 1.292468,1.29053 2.952835,1.978 4.859323,2.19771 0.574718,0.0657 1.167475,0.10824 1.709331,0.28864 0.329883,0.10954 0.590184,0.26288 0.778321,0.45231 0.428455,0.42523 0.491599,1.03732 0.161072,1.75507 -0.202953,0.4407 -0.496115,0.86658 -0.835018,1.21387 L 64.712419,144.91 c -0.253204,0.25257 -0.41299,0.41235 -0.454227,0.45359 -0.201668,0.20359 -0.393028,0.39624 -0.583738,0.58953 l -0.190717,0.18814 c -0.677806,0.68166 -1.358829,1.36076 -2.039858,2.03922 -1.466426,1.47028 -2.936083,2.93672 -4.405733,4.40444 -0.483222,0.48322 -0.966452,0.96645 -1.449674,1.44903 -0.222935,0.22229 -0.455527,0.41106 -0.694559,0.56634 -0.115974,0.0786 -0.224865,0.14432 -0.333749,0.2036 -1.26283,0.63722 -2.669343,0.38142 -3.816842,-0.76543 -0.347923,-0.34792 -0.684247,-0.68424 -1.021219,-1.02057 -1.949012,-1.94902 -3.896732,-3.89932 -5.848324,-5.84575 -0.553456,-0.55217 -1.103689,-1.10047 -1.654564,-1.64877 -0.394313,-0.39237 -0.816336,-0.7635 -1.260256,-1.09918 -0.368542,-0.27898 -0.746747,-0.48709 -1.124951,-0.6269 -1.363345,-0.47163 -2.668057,-0.1295 -3.522394,0.85434 -0.245484,0.30927 -0.451017,0.67458 -0.604999,1.09144 -0.220999,0.59663 -0.296385,1.25446 -0.380142,1.89168 -0.31571,2.41807 -1.662296,4.40895 -3.606799,5.32515 -0.481942,0.23517 -0.998026,0.40527 -1.539883,0.50127 -0.512217,0.0908 -1.027658,0.11018 -1.53666,0.067 -1.714484,-0.087 -3.188,-0.84339 -4.414108,-2.09849 -0.108241,-0.10759 -0.135307,-0.13466 -0.161722,-0.16172 -1.255098,-1.22547 -2.011507,-2.69963 -2.098486,-4.41346 -0.04382,-0.509 -0.02382,-1.02445 0.067,-1.53667 0.09601,-0.54185 0.266097,-1.05858 0.501268,-1.53987 0.916195,-1.94451 2.907732,-3.29045 5.325151,-3.60616 0.637218,-0.0831 1.295048,-0.15915 1.891672,-0.38014 0.447144,-0.16494 0.835012,-0.3898 1.157812,-0.65912 0.936813,-0.84725 1.26218,-2.10236 0.827279,-3.37227 -0.179112,-0.47357 -0.386581,-0.85177 -0.665564,-1.22032 -0.33568,-0.44327 -0.706795,-0.86529 -1.099178,-1.2596 -0.548302,-0.55088 -1.097242,-1.10111 -1.646188,-1.65134 -1.73446,-1.73834 -3.468919,-3.4715 -5.202736,-5.20468 l -0.646232,-0.64623 c -0.336329,-0.33633 -0.673303,-0.67329 -0.98321,-0.98385 -1.184871,-1.18551 -1.440011,-2.5914 -0.8028,-3.85423 0.0593,-0.10888 0.125,-0.21713 0.198444,-0.32538 0.160435,-0.24741 0.349215,-0.48001 0.5715,-0.70293 0.482579,-0.48323 0.965809,-0.96646 1.449032,-1.44969 1.467076,-1.46966 2.934153,-2.93932 4.404446,-4.40575 0.678449,-0.68103 1.356899,-1.36206 2.039215,-2.03986 l 0.188137,-0.19071 c 0.192647,-0.19136 0.385937,-0.38207 0.578578,-0.57343 0.05153,-0.0522 0.211336,-0.21197 0.463903,-0.46518 l 0.184271,-0.17976 c 0.347279,-0.33891 0.773161,-0.63142 1.213866,-0.83502 0.717744,-0.33053 1.32919,-0.26739 1.755072,0.16108 0.189424,0.18813 0.342769,0.44843 0.452304,0.77831 0.179755,0.54186 0.222279,1.13461 0.288646,1.70933 0.219705,1.9065 0.907174,3.56621 2.197707,4.85869 0.289295,0.28864 0.608222,0.55861 0.958724,0.80925 0.898799,0.64172 1.837548,1.0689 2.800784,1.28345 0.569558,0.1089 1.163602,0.15013 1.776334,0.11663 0.579228,-0.0322 1.131396,-0.10825 1.655213,-0.2268 0.393021,-0.10888 0.787335,-0.25064 1.182291,-0.4246 1.171342,-0.51673 2.183541,-1.16748 3.014693,-1.95417 0.787333,-0.83115 1.438075,-1.844 1.954808,-3.0147 0.173959,-0.39431 0.315705,-0.78862 0.424596,-1.18165 0.118547,-0.52446 0.19522,-1.07598 0.226789,-1.65521 0.0335,-0.61273 -0.0077,-1.20678 -0.116618,-1.77635 -0.214552,-0.96322 -0.641721,-1.90197 -1.283449,-2.80077 -0.250631,-0.3505 -0.520594,-0.67007 -0.809239,-0.95872 -1.292469,-1.29054 -2.952836,-1.978 -4.859324,-2.19771 -0.574718,-0.0657 -1.167475,-0.10825 -1.709331,-0.28865 -0.329883,-0.10953 -0.590177,-0.26288 -0.778314,-0.4523 -0.428462,-0.42524 -0.491606,-1.03732 -0.161078,-1.75508 0.202953,-0.4407 0.496114,-0.86659 0.835017,-1.21387 l 0.179755,-0.18426 c 0.253211,-0.25256 0.413002,-0.41236 0.454234,-0.45359 0.201666,-0.20361 0.393027,-0.39624 0.583737,-0.58954 l 0.19071,-0.18813 c 0.677813,-0.68168 1.358835,-1.36077 2.039865,-2.03922 1.466427,-1.47029 2.936083,-2.93672 4.405733,-4.4038 0.483228,-0.48323 0.966451,-0.96645 1.44968,-1.44903 0.222929,-0.22228 0.455521,-0.41107 0.694552,-0.56634 0.115981,-0.0786 0.224866,-0.14433 0.33375,-0.20361 1.26283,-0.63721 2.669343,-0.38142 3.816842,0.76543 0.347923,0.34793 0.684253,0.68426 1.02122,1.02058 1.949012,1.94901 3.896731,3.89931 5.848323,5.84575 0.553456,0.55216 1.103688,1.10046 1.654564,1.64877 0.394314,0.39237 0.816335,0.7635 1.260257,1.09918 0.368542,0.27898 0.746745,0.48708 1.12495,0.6269 1.363345,0.47163 2.668056,0.1295 3.522401,-0.85434 0.245477,-0.30926 0.45101,-0.67458 0.604993,-1.09145 0.220998,-0.59662 0.296378,-1.25446 0.38014,-1.89167 0.315711,-2.41806 1.662297,-4.40896 3.6068,-5.32515 0.481937,-0.23517 0.998022,-0.40462 1.539881,-0.50127 0.512224,-0.0908 1.027664,-0.11018 1.536663,-0.067 1.714482,0.087 3.188004,0.8434 4.414109,2.09849 0.108238,0.1076 0.135302,0.13466 0.16172,0.16172 1.255096,1.22546 2.011511,2.69963 2.09849,4.41347 0.04382,0.509 0.02381,1.02444 -0.06698,1.53666 -0.096,0.54186 -0.266096,1.05858 -0.501267,1.53988 -0.916201,1.9445 -2.907727,3.29044 -5.325151,3.60615 -0.637214,0.0831 -1.295041,0.15914 -1.891664,0.38014 -0.447149,0.16494 -0.835019,0.3898 -1.157814,0.65913 -0.936817,0.84725 -1.262191,2.10235 -0.827283,3.37227 0.179113,0.47356 0.386584,0.85176 0.665563,1.2203 0.335686,0.44329 0.706795,0.86531 1.09918,1.25962 0.5483,0.55088 1.097245,1.10111 1.646191,1.65134 1.949653,1.95417 3.900604,3.9019 5.848975,5.85092 0.336322,0.33633 0.67329,0.6733 0.983194,0.98386 1.184869,1.18552 1.440009,2.59139 0.802795,3.85423 -0.0592,0.10888 -0.12499,0.21713 -0.198441,0.32537 -0.16043,0.24741 -0.349206,0.48001 -0.571494,0.70294 -0.48258,0.48323 -0.965805,0.96645 -1.44903,1.44968 -1.467073,1.46965 -2.934154,2.93931 -4.404443,4.40575 -0.67845,0.68102 -1.3569,1.36205 -2.03922,2.03984 l -0.188131,0.19072 c -0.192653,0.19136 -0.385943,0.38208 -0.578588,0.57342 -0.05151,0.0522 -0.211333,0.21199 -0.463893,0.46519 l -0.184277,0.17977 c -0.347279,0.3389 -0.77316,0.63141 -1.213859,0.83501 -0.717757,0.33052 -1.329196,0.26738 -1.755078,-0.16107 -0.189431,-0.18814 -0.34277,-0.44844 -0.452305,-0.77833 -0.17976,-0.54185 -0.222278,-1.13461 -0.288645,-1.70933 -0.219706,-1.90648 -0.907175,-3.5662 -2.197713,-4.85868 -0.288645,-0.28929 -0.608223,-0.55989 -0.958719,-0.80988 z"
       id="path3774"
       style="fill:none;fill-opacity:1;stroke:#000000;stroke-width:0.5;stroke-miterlimit:4;stroke-dasharray:none;stroke-opacity:1"
       inkscape:connector-curvature="0" />
    <path
       style="fill:none;stroke:#000000;stroke-width:0.5;stroke-miterlimit:4;stroke-dasharray:none;stroke-opacity:1"
       inkscape:connector-curvature="0"
       d="m 139.72697,177.92898 c -3.33755,-1.82437 -7.64441,-2.27254 -11.77299,-1.66121 -7.90396,1.17035 -14.07925,6.14776 -18.04331,13.80389 -1.41407,-2.07841 -2.2691,-4.6931 -2.29182,-7.54185 -1.06777,1.46499 -1.84019,3.22465 -2.23054,5.15503 -0.39035,-1.93108 -1.16277,-3.69004 -2.23053,-5.15503 -0.0234,2.89831 -0.9053,5.55844 -2.36548,7.65407 -3.961272,-7.71948 -10.155842,-12.74025 -18.098362,-13.91611 -4.12925,-0.61133 -8.43611,-0.16392 -11.77298,1.66121 7.60792,1.16828 9.69252,5.93226 8.41753,10.73207 6.0142,-1.81334 11.91893,4.23044 9.99131,11.27318 1.59855,-0.76761 3.89451,-0.97897 5.99492,-0.70084 5.022852,0.66574 8.602722,5.84072 9.996122,12.07177 7.1e-4,-0.008 0.002,-0.0156 0.003,-0.0234 7e-4,0.008 0.003,0.0156 0.003,0.0234 1.39408,-6.23105 4.97329,-11.40603 9.99686,-12.07177 2.09974,-0.27813 4.39567,-0.0674 5.99354,0.70084 -1.92762,-7.04203 3.97779,-13.08584 9.99199,-11.27318 -1.27567,-4.79981 0.80961,-9.56379 8.41686,-10.73207 z"
       id="path14769" />
    <path
       id="path14856"
       d="m 187.12209,146.94591 c -0.58535,-0.0731 -1.13547,0.17877 -1.47257,0.61382 l -2.29154,-0.28667 3.30116,-3.25488 c 0.53507,0.13857 1.12705,0 1.54566,-0.41943 0.62804,-0.63164 0.62459,-1.65217 -0.004,-2.27897 -0.62942,-0.62763 -1.64913,-0.62528 -2.27855,0.004 -0.41432,0.41667 -0.55261,1.0023 -0.41819,1.53336 l -2.95011,2.90936 0.98351,-3.74159 c 0.52042,-0.1546 0.96099,-0.54377 1.10936,-1.10854 0.22588,-0.86042 -0.28818,-1.74018 -1.14791,-1.96661 -0.86055,-0.22726 -1.74183,0.28819 -1.96771,1.14791 -0.14851,0.56422 0.0438,1.11973 0.42095,1.5114 l -1.06861,4.06334 -1.20745,-4.36852 c 0.37342,-0.3954 0.55786,-0.95326 0.40313,-1.51651 -0.2379,-0.85668 -1.12388,-1.36025 -1.98153,-1.12456 -1.52631,0.42192 -1.62081,2.61675 0,3.07625 l 0.94704,3.43019 c -0.71922,0.3114 -5.68941,2.46133 -6.20085,2.68445 0.3469,-1.52355 0.26912,-1.18729 1.52507,-6.68977 0.006,0.032 0.0769,-0.48547 0.0798,-0.74534 0.0905,-3.00164 -2.69108,-5.76926 -6.44455,-4.48402 -0.18319,0.066 0.0311,-0.0528 -3.83816,1.98843 0.89813,-3.54486 1.52175,-7.32583 1.80856,-10.89777 4.16627,2.53455 5.84165,-0.27575 6.29728,-1.49094 0.0605,-0.16123 5.08996,-15.18285 5.08996,-15.18285 l 3.44608,-3.45631 c 0.52899,0.12834 1.10467,0.013 1.51651,-0.39981 0.62845,-0.63136 0.625,-1.6519 -0.004,-2.27953 -0.62888,-0.62707 -1.64913,-0.62445 -2.27801,0.004 -0.41183,0.41418 -0.5247,0.98986 -0.39497,1.51885 l -2.99585,3.00454 1.00562,-3.82144 c 0.52097,-0.1557 0.96112,-0.54487 1.1095,-1.10937 0.2263,-0.86069 -0.28777,-1.74045 -1.14791,-1.9666 -0.86055,-0.22726 -1.74128,0.28763 -1.96771,1.14777 -0.14838,0.56394 0.0438,1.11945 0.42137,1.51112 l -1.06862,4.06266 -1.20745,-4.36757 c 0.37343,-0.39567 0.55786,-0.95353 0.40313,-1.51678 -0.2379,-0.85668 -1.12443,-1.36025 -1.98153,-1.12428 -0.85765,0.23679 -1.36039,1.12428 -1.12442,1.98318 0.15556,0.56159 0.60055,0.94441 1.1229,1.09293 l 1.1113,4.01997 c 0,0 -2.70903,5.29802 -5.39265,10.54879 -0.35837,-0.35934 -0.71881,-0.72019 -1.04071,-1.04319 -0.4407,-0.4414 -0.84287,-0.84481 -1.20027,-1.20331 -0.43394,-2.58014 -1.15274,-4.75508 -2.1031,-6.51681 0.37426,-0.52581 0.59959,-1.1649 0.59959,-1.85815 0,-1.77582 -1.44011,-3.21454 -3.2151,-3.21454 -0.17144,0 -0.33585,0.0245 -0.50011,0.0499 l -1.82251,-1.82237 c 0.01,-0.10928 0.0326,-0.21345 0.0326,-0.32438 0,-2.17038 -1.75633,-3.943022 -3.92381,-3.943022 -2.16734,0 -3.92368,1.772642 -3.92368,3.943022 0,0.11093 0.0231,0.2151 0.0326,0.32438 l -1.82224,1.82251 c -0.16426,-0.0254 -0.32867,-0.0499 -0.50011,-0.0499 -1.77499,0 -3.21509,1.43872 -3.21509,3.21454 0,0.69338 0.22532,1.33234 0.59958,1.85815 -0.95035,1.76186 -1.66916,3.93666 -2.1031,6.51681 -0.35754,0.3585 -0.7597,0.76177 -1.20041,1.20331 -0.3219,0.323 -0.6822,0.68385 -1.04071,1.04319 -2.68361,-5.25077 -5.39265,-10.5488 -5.39265,-10.5488 l 1.1113,-4.01997 c 0.52236,-0.14851 0.96735,-0.53133 1.12291,-1.09292 0.23596,-0.8589 -0.26664,-1.74639 -1.12443,-1.98318 -0.85724,-0.23597 -1.74376,0.2676 -1.98153,1.12428 -0.15473,0.56325 0.0297,1.12111 0.40313,1.51678 l -1.20745,4.36756 -1.06861,-4.06266 c 0.37757,-0.39166 0.56988,-0.94703 0.42136,-1.51111 -0.22643,-0.86014 -1.10715,-1.37503 -1.96771,-1.14777 -0.86014,0.22615 -1.3742,1.10591 -1.14791,1.9666 0.14852,0.56449 0.58867,0.95381 1.10951,1.10937 l 1.00561,3.82144 -2.99543,-3.00454 c 0.12973,-0.52899 0.0169,-1.10467 -0.39498,-1.51886 -0.62901,-0.62887 -1.64913,-0.63149 -2.278,-0.004 -0.62942,0.62763 -0.63288,1.64817 -0.004,2.27952 0.4117,0.4128 0.98738,0.52816 1.51637,0.39982 l 3.44608,3.4563 c 0,0 5.02959,15.02163 5.08996,15.18286 0.45577,1.21519 2.13115,4.02549 6.29728,1.49094 0.28695,3.57194 0.91057,7.35291 1.80856,10.89777 -3.86924,-2.04107 -3.65497,-1.9224 -3.83816,-1.98843 -3.75333,-1.28538 -6.5349,1.48224 -6.44441,4.48402 0.003,0.25987 0.0735,0.77752 0.0799,0.74534 1.25595,5.50248 1.17817,5.16622 1.52507,6.68977 -0.51144,-0.22312 -5.48163,-2.37305 -6.20085,-2.68445 l 0.94704,-3.43019 c 1.6208,-0.45964 1.52631,-2.65447 0,-3.07625 -0.85766,-0.23569 -1.74363,0.26774 -1.98153,1.12456 -0.15473,0.56311 0.0297,1.12097 0.40313,1.5165 l -1.20745,4.36853 -1.06862,-4.06335 c 0.37716,-0.39166 0.56947,-0.94717 0.42096,-1.51139 -0.22588,-0.85958 -1.10716,-1.37517 -1.96772,-1.14791 -0.85972,0.22643 -1.37379,1.10619 -1.14791,1.96661 0.14852,0.56476 0.58909,0.95408 1.10937,1.10853 l 0.98351,3.74159 -2.94998,-2.90935 c 0.13456,-0.53106 -0.004,-1.11669 -0.41818,-1.53336 -0.62943,-0.62901 -1.64913,-0.63136 -2.27856,-0.004 -0.62887,0.6268 -0.63232,1.64733 -0.004,2.27897 0.4186,0.41943 1.01059,0.558 1.54565,0.41943 l 3.30102,3.25488 -2.29154,0.28666 c -0.33709,-0.4349 -0.88721,-0.68689 -1.47257,-0.61381 -0.88307,0.11108 -1.50918,0.91637 -1.39921,1.79723 0.11011,0.88197 0.91554,1.50891 1.79958,1.40032 0.58535,-0.0736 1.05576,-0.4537 1.27515,-0.95851 l 3.5823,-0.44844 c 0.37785,0.20999 10.68115,5.93477 10.68115,5.93477 1.11627,0.62016 2.48647,0.55924 3.5432,-0.1575 1.05673,-0.71673 1.62122,-1.96743 1.45682,-3.2336 -0.41971,-3.23264 -0.81676,-6.27711 -0.81855,-6.29148 0.21427,0.14133 5.83239,4.00464 8.68138,5.94748 1.1189,1.21353 2.31572,1.94022 3.55881,1.94022 1.2431,0 2.43992,-0.72683 3.55882,-1.94022 2.84899,-1.94284 8.46725,-5.80615 8.68138,-5.94748 -0.002,0.0144 -0.39884,3.05884 -0.81855,6.29148 -0.1644,1.26617 0.40023,2.517 1.45682,3.2336 1.05687,0.71674 2.42693,0.77766 3.5432,0.1575 0,0 10.30344,-5.72478 10.68115,-5.93477 l 3.5823,0.44844 c 0.21939,0.50481 0.6898,0.88487 1.27515,0.95851 0.88404,0.10872 1.68947,-0.51835 1.79944,-1.40046 0.11024,-0.881 -0.51586,-1.68629 -1.39894,-1.79723 z"
       inkscape:connector-curvature="0"
       style="fill:none;stroke:#000000;stroke-width:0.5;stroke-miterlimit:4;stroke-dasharray:none;stroke-opacity:1" />
    <g
       transform="matrix(0.13815278,0,0,0.13815278,120.8491,93.30036)"
       id="g14858"
       style="fill:none;stroke:#000000;stroke-width:3.61918163;stroke-miterlimit:4;stroke-dasharray:none;stroke-opacity:1" />
    <g
       transform="matrix(0.13815278,0,0,0.13815278,120.8491,93.30036)"
       id="g14860"
       style="fill:none;stroke:#000000;stroke-width:3.61918163;stroke-miterlimit:4;stroke-dasharray:none;stroke-opacity:1" />
    <g
       transform="matrix(0.13815278,0,0,0.13815278,120.8491,93.30036)"
       id="g14862"
       style="fill:none;stroke:#000000;stroke-width:3.61918163;stroke-miterlimit:4;stroke-dasharray:none;stroke-opacity:1" />
    <g
       transform="matrix(0.13815278,0,0,0.13815278,120.8491,93.30036)"
       id="g14864"
       style="fill:none;stroke:#000000;stroke-width:3.61918163;stroke-miterlimit:4;stroke-dasharray:none;stroke-opacity:1" />
    <g
       transform="matrix(0.13815278,0,0,0.13815278,120.8491,93.30036)"
       id="g14866"
       style="fill:none;stroke:#000000;stroke-width:3.61918163;stroke-miterlimit:4;stroke-dasharray:none;stroke-opacity:1" />
    <g
       transform="matrix(0.13815278,0,0,0.13815278,120.8491,93.30036)"
       id="g14868"
       style="fill:none;stroke:#000000;stroke-width:3.61918163;stroke-miterlimit:4;stroke-dasharray:none;stroke-opacity:1" />
    <g
       transform="matrix(0.13815278,0,0,0.13815278,120.8491,93.30036)"
       id="g14870"
       style="fill:none;stroke:#000000;stroke-width:3.61918163;stroke-miterlimit:4;stroke-dasharray:none;stroke-opacity:1" />
    <g
       transform="matrix(0.13815278,0,0,0.13815278,120.8491,93.30036)"
       id="g14872"
       style="fill:none;stroke:#000000;stroke-width:3.61918163;stroke-miterlimit:4;stroke-dasharray:none;stroke-opacity:1" />
    <g
       transform="matrix(0.13815278,0,0,0.13815278,120.8491,93.30036)"
       id="g14874"
       style="fill:none;stroke:#000000;stroke-width:3.61918163;stroke-miterlimit:4;stroke-dasharray:none;stroke-opacity:1" />
    <g
       transform="matrix(0.13815278,0,0,0.13815278,120.8491,93.30036)"
       id="g14876"
       style="fill:none;stroke:#000000;stroke-width:3.61918163;stroke-miterlimit:4;stroke-dasharray:none;stroke-opacity:1" />
    <g
       transform="matrix(0.13815278,0,0,0.13815278,120.8491,93.30036)"
       id="g14878"
       style="fill:none;stroke:#000000;stroke-width:3.61918163;stroke-miterlimit:4;stroke-dasharray:none;stroke-opacity:1" />
    <g
       transform="matrix(0.13815278,0,0,0.13815278,120.8491,93.30036)"
       id="g14880"
       style="fill:none;stroke:#000000;stroke-width:3.61918163;stroke-miterlimit:4;stroke-dasharray:none;stroke-opacity:1" />
    <g
       transform="matrix(0.13815278,0,0,0.13815278,120.8491,93.30036)"
       id="g14882"
       style="fill:none;stroke:#000000;stroke-width:3.61918163;stroke-miterlimit:4;stroke-dasharray:none;stroke-opacity:1" />
    <g
       transform="matrix(0.13815278,0,0,0.13815278,120.8491,93.30036)"
       id="g14884"
       style="fill:none;stroke:#000000;stroke-width:3.61918163;stroke-miterlimit:4;stroke-dasharray:none;stroke-opacity:1" />
    <g
       transform="matrix(0.13815278,0,0,0.13815278,120.8491,93.30036)"
       id="g14886"
       style="fill:none;stroke:#000000;stroke-width:3.61918163;stroke-miterlimit:4;stroke-dasharray:none;stroke-opacity:1" />
    <path
       inkscape:connector-curvature="0"
       style="fill:none;fill-opacity:1;stroke:#000000;stroke-width:0.5;stroke-miterlimit:4;stroke-dasharray:none;stroke-opacity:1"
       d="m 62.469643,230.85944 c -6.778547,0 -12.292122,5.51357 -12.292122,12.29212 0,6.77855 5.513575,12.29212 12.292122,12.29212 6.778547,0 12.292122,-5.51357 12.292122,-12.29212 0,-6.77855 -5.513575,-12.29212 -12.292122,-12.29212 z"
       id="path1122" />
    <path
       inkscape:connector-curvature="0"
       style="fill:none;fill-opacity:1;stroke:#000000;stroke-width:0.5;stroke-miterlimit:4;stroke-dasharray:none;stroke-opacity:1"
       d="m 33.415536,228.62451 c -3.079735,0 -5.587328,2.50759 -5.587328,5.58733 0,3.07973 2.507593,5.58732 5.587328,5.58732 3.079735,0 5.587328,-2.50759 5.587328,-5.58732 0,-3.07974 -2.507593,-5.58733 -5.587328,-5.58733 z"
       id="path1120" />
    <path
       inkscape:connector-curvature="0"
       style="fill:none;fill-opacity:1;stroke:#000000;stroke-width:0.5;stroke-miterlimit:4;stroke-dasharray:none;stroke-opacity:1"
       d="m 37.885399,253.20875 c -4.313418,0 -7.82226,3.50884 -7.82226,7.82226 0,4.31342 3.508842,7.82226 7.82226,7.82226 4.313417,0 7.822259,-3.50884 7.822259,-7.82226 0,-4.31342 -3.508842,-7.82226 -7.822259,-7.82226 z"
       id="path1118" />
    <path
       inkscape:connector-curvature="0"
       style="fill:none;fill-opacity:1;stroke:#000000;stroke-width:0.5;stroke-miterlimit:4;stroke-dasharray:none;stroke-opacity:1"
       d="m 76.88495,219.68478 c -1.063827,0 -1.977914,0.7487 -2.190233,1.79018 -0.315125,1.55328 -1.698548,2.67969 -3.285349,2.67969 -1.586801,0 -2.970224,-1.12641 -3.285349,-2.67969 -0.210083,-1.04148 -1.126405,-1.79018 -2.190233,-1.79018 H 21.123414 c -1.233682,0 -2.234931,1.00125 -2.234931,2.23493 v 29.16586 c 0,1.06382 0.748702,1.97791 1.79018,2.19023 1.553277,0.31513 2.679682,1.69855 2.679682,3.28535 0,1.5868 -1.126405,2.97022 -2.679682,3.28535 -1.041478,0.21008 -1.79018,1.1264 -1.79018,2.19023 v 17.9912 c 0,1.23368 1.001249,2.23493 2.234931,2.23493 h 11.791497 c 0.945376,0 1.787945,-0.59449 2.105306,-1.48623 1.108526,-3.1222 4.0564,-5.21856 7.335044,-5.21856 3.278644,0 6.226519,2.09636 7.335045,5.21856 0.31736,0.89174 1.159929,1.48623 2.105305,1.48623 h 27.436017 c 1.233682,0 2.234931,-1.00125 2.234931,-2.23493 v -58.10822 c 0,-1.23368 -1.001249,-2.23493 -2.234931,-2.23493 z"
       id="path14974" />
    <path
       inkscape:connector-curvature="0"
       id="path14990"
       d="M 62.658875,33.756798 A 20.579754,20.579754 0 0 1 42.079121,54.336552 20.579754,20.579754 0 0 1 21.499367,33.756798 20.579754,20.579754 0 0 1 42.079121,13.177044 20.579754,20.579754 0 0 1 62.658875,33.756798 Z"
       style="opacity:1;fill:none;fill-opacity:1;fill-rule:nonzero;stroke:#000000;stroke-width:0.5;stroke-linecap:round;stroke-linejoin:miter;stroke-miterlimit:4;stroke-dasharray:none;stroke-dashoffset:0;stroke-opacity:1" />
    <path
       inkscape:connector-curvature="0"
       id="rect14992"
       d="M 80.901688,35.145523 H 121.25938 V 75.50322 H 80.901688 Z"
       style="opacity:1;fill:none;fill-opacity:1;fill-rule:nonzero;stroke:#000000;stroke-width:0.5;stroke-linecap:round;stroke-linejoin:miter;stroke-miterlimit:4;stroke-dasharray:none;stroke-dashoffset:0;stroke-opacity:1" />
    <path
       style="fill:none;stroke:#000000;stroke-width:0.5;stroke-miterlimit:4;stroke-dasharray:none;stroke-opacity:1"
       inkscape:connector-curvature="0"
       d="m 149.47659,10.203005 c -8.66093,0 -15.51212,6.980452 -15.51212,15.512117 0,17.451133 17.58041,21.975497 29.47302,39.168092 11.37556,-17.063324 29.6023,-22.363299 29.6023,-39.168092 0,-8.531665 -6.98046,-15.512117 -15.51212,-15.512117 -6.20485,0 -11.63409,3.619494 -14.09018,8.919467 -2.45608,-5.299973 -7.75605,-8.919467 -13.9609,-8.919467 z"
       id="path1255" />
    <circle
       style="fill:#ff0000"
       cx="155.00105"
       cy="256.34125"
       r="2"
       inkscape:label="centroid-dot"
       id="circle1096" />
    <circle
       id="circle883"
       inkscape:label="centroid-dot"
       r="2"
       fill="red"
       cy="251.572801904"
       cx="49.8499465686" />
    <circle
       cx="105.326561443"
       cy="189.001470457"
       fill="red"
       r="2"
       inkscape:label="centroid-dot"
       id="circle885" />
    <circle
       id="circle887"
       inkscape:label="centroid-dot"
       r="2"
       fill="red"
       cy="129.744083851"
       cx="154.762175649" />
    <circle
       cx="53.3411263513"
       cy="122.157399915"
       fill="red"
       r="2"
       inkscape:label="centroid-dot"
       id="circle963" />
    <circle
       id="circle891"
       inkscape:label="centroid-dot"
       r="2"
       fill="red"
       cy="33.756798"
       cx="42.079121" />
    <circle
       cx="101.080534"
       cy="55.3243715"
       fill="red"
       r="2"
       inkscape:label="centroid-dot"
       id="circle971" />
    <circle
       id="circle895"
       inkscape:label="centroid-dot"
       r="2"
       fill="red"
       cy="32.0093272203"
       cx="163.417721232" />
  </g>
</svg>
