<?xml version="1.0" encoding="UTF-8" standalone="no"?>
<svg
   xmlns:dc="http://purl.org/dc/elements/1.1/"
   xmlns:cc="http://creativecommons.org/ns#"
   xmlns:rdf="http://www.w3.org/1999/02/22-rdf-syntax-ns#"
   xmlns:svg="http://www.w3.org/2000/svg"
   xmlns="http://www.w3.org/2000/svg"
   xmlns:sodipodi="http://sodipodi.sourceforge.net/DTD/sodipodi-0.dtd"
   xmlns:inkscape="http://www.inkscape.org/namespaces/inkscape"
   width="261.66531mm"
   height="176.9915mm"
   viewBox="0 0 261.66532 176.9915"
   version="1.1"
   id="svg863"
   inkscape:version="1.0 (1.0+r73+1)"
   sodipodi:docname="examples-strange.svg">
  <sodipodi:namedview
     inkscape:document-rotation="0"
     fit-margin-bottom="10"
     fit-margin-right="10"
     fit-margin-left="10"
     fit-margin-top="10"
     inkscape:window-maximized="1"
     inkscape:window-y="27"
     inkscape:window-x="67"
     inkscape:window-height="1385"
     inkscape:window-width="2493"
     showgrid="false"
     inkscape:current-layer="layer1"
     inkscape:document-units="mm"
     inkscape:cy="421.4139"
     inkscape:cx="374.99707"
     inkscape:zoom="1.28"
     inkscape:pageshadow="2"
     inkscape:pageopacity="0.0"
     borderopacity="1.0"
     bordercolor="#666666"
     pagecolor="#ffffff"
     id="base" />
  <defs
     id="defs857" />
  <metadata
     id="metadata860">
    <rdf:RDF>
      <cc:Work
         rdf:about="">
        <dc:format>image/svg+xml</dc:format>
        <dc:type
           rdf:resource="http://purl.org/dc/dcmitype/StillImage" />
        <dc:title />
      </cc:Work>
    </rdf:RDF>
  </metadata>
  <g
     id="layer1"
     inkscape:groupmode="layer"
     inkscape:label="Ebene 1"
     transform="translate(-4.035652,-188.7108)">
    <path
       id="path826"
       d="m 153.10008,233.86597 v 50.00004 h 50.00003 v -50.00004 z"
       style="opacity:1;fill:none;fill-opacity:1;stroke:#000000;stroke-width:0.5;stroke-miterlimit:10;stroke-dasharray:none;stroke-opacity:1" />
    <path
       id="path834"
       d="m 16.270662,220.21902 c -1.23368,0 -2.23501,1.00133 -2.23501,2.23501 v 29.16618 c 0,1.06381 0.74911,1.97772 1.79059,2.19004 1.55327,0.31513 2.67943,1.69879 2.67943,3.28559 0,1.5868 -1.12616,2.96994 -2.67943,3.28507 -1.04148,0.21008 -1.79059,1.12622 -1.79059,2.19005 v 17.99167 c 0,1.23367 1.00133,2.23448 2.23501,2.23448 h 11.79153 c 0.94538,0 1.78794,-0.59446 2.1053,-1.48621 1.108526,-3.12219 4.056306,-5.21828 7.334946,-5.21828 3.27865,0 6.22642,2.09609 7.33495,5.21828 0.31736,0.89175 1.15993,1.48621 2.1053,1.48621 h 27.436049 c 1.23368,0 2.23501,-1.00081 2.23501,-2.23448 v -58.1086 c 0,-1.23368 -1.00133,-2.23501 -2.23501,-2.23501 h -2.34663 c -1.06382,0 -1.97772,0.74911 -2.19004,1.79059 -0.31513,1.55328 -1.69879,2.67942 -3.28559,2.67942 -1.5868,0 -2.96994,-1.12614 -3.28507,-2.67942 -0.21008,-1.04148 -1.12622,-1.79059 -2.19005,-1.79059 z"
       style="fill:none;fill-opacity:1;stroke:#000000;stroke-width:0.5;stroke-miterlimit:4;stroke-dasharray:none;stroke-opacity:1" />
    <path
       id="path832"
       d="m 28.562932,229.15904 c 3.079726,0 5.587256,2.50752 5.587256,5.58726 0,3.07973 -2.50753,5.58725 -5.587256,5.58725 -3.07974,0 -5.58725,-2.50752 -5.58725,-5.58725 0,-3.07974 2.50751,-5.58726 5.58725,-5.58726 z"
       style="fill:none;fill-opacity:1;stroke:#000000;stroke-width:0.5;stroke-miterlimit:4;stroke-dasharray:none;stroke-opacity:1" />
    <path
       id="path830"
       d="m 33.032938,253.74307 c 4.31342,0 7.82227,3.50884 7.82227,7.82226 0,4.31342 -3.50885,7.82227 -7.82227,7.82227 -4.313416,0 -7.822256,-3.50885 -7.822256,-7.82227 0,-4.31342 3.50884,-7.82226 7.822256,-7.82226 z"
       style="fill:none;fill-opacity:1;stroke:#000000;stroke-width:0.5;stroke-miterlimit:4;stroke-dasharray:none;stroke-opacity:1" />
    <path
       id="path14974"
       d="m 61.492187,254.7797 c 6.77854,0 12.29227,5.51372 12.29227,12.29228 0,6.77854 -5.51373,12.29227 -12.29227,12.29227 -6.77855,0 -12.291759,-5.51373 -12.291759,-12.29227 0,-6.77856 5.513209,-12.29228 12.291759,-12.29228 z"
       style="fill:none;fill-opacity:1;stroke:#000000;stroke-width:0.5;stroke-miterlimit:4;stroke-dasharray:none;stroke-opacity:1" />
    <circle
       id="circle835"
       inkscape:label="centroid-dot-802227"
       r="2"
       fill="red"
       cy="248.424595737"
       cx="44.3868101949" />
  </g>
</svg>
